:FULLY-SPECIFIED
:FORCE-ALL-JOINTS-BE-3DOF
:DEGREES
485
root 10.9077 17.2988 32.5365 4.60876 4.40211 6.10843
lfemur 11.8799 3.27579 -30.9691
ltibia 5.79623 -0 0
lfoot -16.0684 3.85243 -0.0555806
ltoes 4.11778 -0 0
rfemur -43.1268 8.44457 7.3583
rtibia 44.3876 -0 0
rfoot -25.6784 -10.5302 -0.375588
rtoes -3.79059 0 0
lowerback -5.24318 -4.95815 -6.08489
upperback -0.420995 -6.263 0.810984
thorax 3.14926 -3.21084 3.59846
lowerneck -22.4679 -2.41929 -10.0999
upperneck 25.5101 -2.99932 10.7067
head 12.5036 -0.903352 5.32979
lclavicle 5.40938e-15 2.24466e-14 -2.57719e-30
lhumerus -11.8657 -21.7747 85.5654
lradius 31.3386 -0 0
lwrist 2.60906 0 0
lhand -14.547 -26.0102 -0.0230864
lfingers 7.12502 -0 0
lthumb 11.6024 3.66217 -0.018469
rclavicle 5.40938e-15 2.24466e-14 -2.57719e-30
rhumerus -51.5172 7.76433 -86.3275
rradius 35.163 -0 0
rwrist -16.9107 0 0
rhand -29.4438 -26.0726 0.0255742
rfingers 7.12502 -0 0
rthumb -2.78032 -56.0332 0.024642
486
root 10.8956 17.2806 32.6097 4.6186 4.48996 6.07562
lfemur 12.5629 3.11188 -30.836
ltibia 5.04605 -0 0
lfoot -16.0974 3.90817 -0.0510297
ltoes 4.02607 -0 0
rfemur -43.3394 9.06239 7.15122
rtibia 42.5458 -0 0
rfoot -26.2059 -10.3587 -0.352276
rtoes -3.17917 0 0
lowerback -5.2995 -5.02069 -6.08317
upperback -0.370946 -6.34317 0.828585
thorax 3.24949 -3.25388 3.60873
lowerneck -22.4888 -2.39908 -10.0625
upperneck 25.5089 -2.99527 10.7495
head 12.5081 -0.891942 5.342
lclavicle 7.87173e-15 2.26152e-14 -2.26815e-30
lhumerus -11.8587 -22.1086 85.5267
lradius 31.8125 -0 0
lwrist 3.04407 0 0
lhand -14.5859 -26.0611 -0.0218439
lfingers 7.12502 -0 0
lthumb 11.5648 3.61256 -0.0175343
rclavicle 7.87173e-15 2.26152e-14 -2.26815e-30
rhumerus -51.4877 7.72004 -86.2444
rradius 35.2534 -0 0
rwrist -17.1232 0 0
rhand -29.3907 -25.7422 0.0238692
rfingers 7.12502 -0 0
rthumb -2.72907 -55.7034 0.0229992
487
root 10.882 17.2615 32.6727 4.63106 4.57273 6.02718
lfemur 13.2001 2.9322 -30.6852
ltibia 4.30105 -0 0
lfoot -16.1178 3.97181 -0.0458012
ltoes 3.9132 -0 0
rfemur -43.4899 9.70278 6.96473
rtibia 40.6187 -0 0
rfoot -26.7217 -10.1653 -0.322935
rtoes -2.56809 0 0
lowerback -5.3617 -5.07574 -6.07039
upperback -0.320451 -6.41383 0.849557
thorax 3.35304 -3.29213 3.61754
lowerneck -22.5068 -2.38266 -10.0276
upperneck 25.5035 -2.99671 10.7957
head 12.5113 -0.882844 5.35495
lclavicle 1.03777e-14 2.27334e-14 -1.94772e-30
lhumerus -11.9002 -22.4396 85.5039
lradius 32.2909 -0 0
lwrist 3.49168 0 0
lhand -14.6168 -26.1074 -0.0201871
lfingers 7.12502 -0 0
lthumb 11.535 3.56673 -0.0162561
rclavicle 1.03777e-14 2.27334e-14 -1.94772e-30
rhumerus -51.4351 7.68113 -86.1613
rradius 35.3486 -0 0
rwrist -17.3395 0 0
rhand -29.3364 -25.4028 0.0217863
rfingers 7.12502 -0 0
rthumb -2.67662 -55.3649 0.0209924
488
root 10.8671 17.2413 32.7249 4.64621 4.65013 5.96252
lfemur 13.7887 2.73628 -30.516
ltibia 3.5623 -0 0
lfoot -16.1293 4.04358 -0.0398853
ltoes 3.77844 -0 0
rfemur -43.575 10.3663 6.80102
rtibia 38.6051 -0 0
rfoot -27.2245 -9.94961 -0.287184
rtoes -1.95808 0 0
lowerback -5.42997 -5.12293 -6.04613
upperback -0.269551 -6.47453 0.874025
thorax 3.45994 -3.32535 3.62482
lowerneck -22.5218 -2.37022 -9.99543
upperneck 25.4938 -3.00386 10.8454
head 12.5133 -0.876163 5.36867
lclavicle 1.29261e-14 2.27991e-14 -1.61934e-30
lhumerus -11.9923 -22.7674 85.4981
lradius 32.7733 -0 0
lwrist 3.95186 0 0
lhand -14.6393 -26.1492 -0.0180866
lfingers 7.12502 -0 0
lthumb 11.5131 3.52488 -0.0146083
rclavicle 1.29261e-14 2.27991e-14 -1.61934e-30
rhumerus -51.3586 7.64783 -86.0785
rradius 35.4487 -0 0
rwrist -17.5593 0 0
rhand -29.2809 -25.0547 0.0193019
rfingers 7.12502 -0 0
rthumb -2.62299 -55.0175 0.0185986
489
root 10.8506 17.2202 32.7658 4.6641 4.72188 5.88108
lfemur 14.3261 2.52369 -30.3277
ltibia 2.83088 -0 0
lfoot -16.1315 4.12373 -0.0332769
ltoes 3.62108 -0 0
rfemur -43.5914 11.0535 6.66243
rtibia 36.5038 -0 0
rfoot -27.7134 -9.71084 -0.244656
rtoes -1.34987 0 0
lowerback -5.50448 -5.16186 -6.00996
upperback -0.218288 -6.5248 0.902116
thorax 3.5702 -3.35331 3.63052
lowerneck -22.5336 -2.36192 -9.96611
upperneck 25.4796 -3.01694 10.8985
head 12.5141 -0.872001 5.38317
lclavicle 1.55159e-14 2.28101e-14 -1.28674e-30
lhumerus -12.1374 -23.0913 85.5106
lradius 33.2594 -0 0
lwrist 4.4246 0 0
lhand -14.6532 -26.186 -0.0155141
lfingers 7.12502 -0 0
lthumb 11.4997 3.48722 -0.0125659
rclavicle 1.55159e-14 2.28101e-14 -1.28674e-30
rhumerus -51.2573 7.62034 -85.996
rradius 35.5537 -0 0
rwrist -17.7826 0 0
rhand -29.2242 -24.6977 0.0163917
rfingers 7.12502 -0 0
rthumb -2.56819 -54.6613 0.0157945
490
root 10.8326 17.198 32.795 4.68482 4.78768 5.78228
lfemur 14.8093 2.29405 -30.1198
ltibia 2.10786 -0 0
lfoot -16.124 4.2125 -0.0259758
ltoes 3.44039 -0 0
rfemur -43.5356 11.7647 6.5515
rtibia 34.3137 -0 0
rfoot -28.187 -9.44847 -0.194997
rtoes -0.744181 0 0
lowerback -5.5854 -5.19215 -5.96146
upperback -0.1667 -6.56418 0.933958
thorax 3.68383 -3.37576 3.63458
lowerneck -22.5421 -2.35794 -9.93977
upperneck 25.4608 -3.03615 10.9552
head 12.5135 -0.870461 5.39845
lclavicle 1.81457e-14 2.27643e-14 -9.53973e-31
lhumerus -12.3378 -23.4108 85.5426
lradius 33.7487 -0 0
lwrist 4.90989 0 0
lhand -14.658 -26.2178 -0.0124427
lfingers 7.12502 -0 0
lthumb 11.495 3.45395 -0.0101053
rclavicle 1.81457e-14 2.27643e-14 -9.53973e-31
rhumerus -51.1303 7.59887 -85.9139
rradius 35.6637 -0 0
rwrist -18.0094 0 0
rhand -29.1662 -24.332 0.0130312
rfingers 7.12502 -0 0
rthumb -2.51225 -54.2964 0.0125565
491
root 10.8131 17.1748 32.812 4.70844 4.84725 5.66555
lfemur 15.2357 2.04707 -29.8915
ltibia 1.39432 -0 0
lfoot -16.1064 4.31015 -0.0179874
ltoes 3.23566 -0 0
rfemur -43.4042 12.5003 6.47096
rtibia 32.0335 -0 0
rfoot -28.6443 -9.16188 -0.137873
rtoes -0.141741 0 0
lowerback -5.67288 -5.21339 -5.90023
upperback -0.114823 -6.59222 0.96968
thorax 3.80085 -3.39247 3.63697
lowerneck -22.5472 -2.35846 -9.91656
upperneck 25.4372 -3.06171 11.0156
head 12.5115 -0.871646 5.41454
lclavicle 2.08145e-14 2.26594e-14 -6.25418e-31
lhumerus -12.5957 -23.7252 85.5953
lradius 34.241 -0 0
lwrist 5.40771 0 0
lhand -14.6533 -26.2441 -0.00884783
lfingers 7.12502 -0 0
lthumb 11.4993 3.42528 -0.007204
rclavicle 2.08145e-14 2.26594e-14 -6.25418e-31
rhumerus -50.9767 7.58364 -85.8324
rradius 35.7788 -0 0
rwrist -18.2394 0 0
rhand -29.1071 -23.9576 0.00919585
rfingers 7.12502 -0 0
rthumb -2.45517 -53.9228 0.00886089
492
root 10.792 17.1505 32.8162 4.73504 4.90031 5.53032
lfemur 15.6025 1.7825 -29.642
ltibia 0.691344 -0 0
lfoot -16.0785 4.41691 -0.00932281
ltoes 3.00617 -0 0
rfemur -43.1932 13.2606 6.42377
rtibia 29.6622 -0 0
rfoot -29.0841 -8.85048 -0.0729702
rtoes 0.456725 -0 0
lowerback -5.76709 -5.22517 -5.82585
upperback -0.062692 -6.60845 1.00941
thorax 3.92127 -3.40318 3.63761
lowerneck -22.5487 -2.36365 -9.89662
upperneck 25.4086 -3.09382 11.0797
head 12.5081 -0.875658 5.43145
lclavicle 2.35212e-14 2.24933e-14 -3.05759e-31
lhumerus -12.9134 -24.0339 85.67
lradius 34.7358 -0 0
lwrist 5.91805 0 0
lhand -14.6389 -26.2649 -0.00470687
lfingers 7.12502 -0 0
lthumb 11.5131 3.40141 -0.00384169
rclavicle 2.35212e-14 2.24933e-14 -3.05759e-31
rhumerus -50.7956 7.57484 -85.7514
rradius 35.8991 -0 0
rwrist -18.4727 0 0
rhand -29.0469 -23.5745 0.00486051
rfingers 7.12502 -0 0
rthumb -2.39699 -53.5406 0.00468349
493
root 10.7692 17.1252 32.8072 4.76472 4.94658 5.37601
lfemur 15.9068 1.5002 -29.3704
ltibia 3.18055e-15 0 0
lfoot -16.0397 4.53304 0
ltoes 2.7512 0 0
rfemur -42.8989 14.0455 6.41316
rtibia 27.1984 0 0
rfoot -29.5052 -8.51367 0
rtoes 1.05049 0 0
lowerback -5.86816 -5.22708 -5.73792
upperback -0.0103376 -6.61241 1.05328
thorax 4.04511 -3.40765 3.63648
lowerneck -22.5464 -2.37369 -9.88009
upperneck 25.3748 -3.1327 11.1477
head 12.5032 -0.882602 5.4492
lclavicle 2.62644e-14 2.22639e-14 0
lhumerus -13.2933 -24.3359 85.7679
lradius 35.2327 0 0
lwrist 6.44089 0 0
lhand -14.6144 -26.2799 0
lfingers 7.12502 0 0
lthumb 11.5366 3.38255 0
rclavicle 2.62644e-14 2.22639e-14 0
rhumerus -50.5862 7.57269 -85.6711
rradius 36.0246 0 0
rwrist -18.709 0 0
rhand -28.9855 -23.1828 0
rfingers 7.12502 0 0
rthumb -2.3377 -53.1497 0
494
root 10.7481 17.0959 32.9558 4.65324 4.79708 5.51746
lfemur 16.5642 1.62343 -29.3651
ltibia -2.22639e-14 0 0
lfoot -16.0888 4.50031 0
ltoes 0.997747 0 0
rfemur -42.771 13.6049 6.80794
rtibia 27.2264 0 0
rfoot -29.1789 -8.67149 0
rtoes -0.677596 0 0
lowerback -6.13164 -5.23021 -6.04473
upperback 0.406665 -6.57042 1.04862
thorax 4.66047 -3.4167 3.75754
lowerneck -22.6942 -2.53726 -9.82119
upperneck 24.8054 -3.27237 10.95
head 12.3221 -0.957129 5.30872
lclavicle 5.31749e-14 2.22639e-14 0
lhumerus -12.7731 -23.3794 85.6477
lradius 35.7882 0 0
lwrist 8.117 0 0
lhand -15.7376 -26.2091 0
lfingers 7.12502 0 0
lthumb 10.4532 3.51098 0
rclavicle 5.31749e-14 2.22639e-14 0
rhumerus -49.9325 7.32231 -85.443
rradius 35.4595 0 0
rwrist -18.5607 0 0
rhand -29.0966 -22.7552 0
rfingers 7.12502 0 0
rthumb -2.44505 -52.7209 0
495
root 10.7306 17.0685 33.1104 4.86729 4.6655 5.48868
lfemur 16.8913 1.6869 -29.2017
ltibia 3.18055e-14 0 0
lfoot -16.0758 4.53664 0
ltoes -5.45447 0 0
rfemur -42.7838 12.8253 7.41241
rtibia 26.9642 0 0
rfoot -24.5665 -13.2811 0
rtoes -26.2908 0 0
lowerback -6.78009 -5.16509 -6.05225
upperback 0.771123 -6.43505 1.06323
thorax 5.39689 -3.37393 3.71693
lowerneck -23.0717 -2.50881 -9.72001
upperneck 24.4445 -3.20599 10.953
head 12.2456 -0.905414 5.29072
lclavicle -1.85367e-14 3.97569e-15 0
lhumerus -12.6917 -24.6731 85.8763
lradius 35.4237 0 0
lwrist 6.44554 0 0
lhand -15.4761 -26.4813 0
lfingers 7.12502 0 0
lthumb 10.7055 3.22593 0
rclavicle -1.85367e-14 3.97569e-15 0
rhumerus -49.2089 6.63563 -85.0246
rradius 34.8675 0 0
rwrist -18.1223 0 0
rhand -29.6432 -22.0297 0
rfingers 7.12502 0 0
rthumb -2.97289 -51.9887 0
